<?xml version="1.0" standalone="no"?>
<!DOCTYPE svg PUBLIC "-//W3C//DTD SVG 20010904//EN"
 "http://www.w3.org/TR/2001/REC-SVG-20010904/DTD/svg10.dtd">
<svg version="1.0" xmlns="http://www.w3.org/2000/svg"
 width="512.000000pt" height="512.000000pt" viewBox="0 0 512.000000 512.000000"
 preserveAspectRatio="xMidYMid meet">

<g transform="translate(0.000000,512.000000) scale(0.100000,-0.100000)"
fill="#000000" stroke="none">
<path d="M2388 4899 c-110 -7 -285 -32 -294 -42 -3 -2 -28 -67 -56 -143 -110
-301 -199 -578 -247 -774 -50 -203 -101 -459 -101 -506 l0 -24 873 2 872 3 -3
35 c-15 158 -122 587 -223 896 -63 194 -174 502 -183 511 -10 10 -188 34 -316
43 -158 11 -153 11 -322 -1z"/>
<path d="M1733 4755 c-501 -181 -961 -581 -1227 -1064 -49 -90 -126 -255 -126
-271 0 -7 187 -10 540 -10 l540 0 4 23 c3 12 14 81 26 152 48 295 170 725 319
1123 17 45 27 82 23 82 -4 -1 -49 -16 -99 -35z"/>
<path d="M3285 4773 c152 -384 281 -838 348 -1223 l23 -135 542 -3 c310 -1
542 2 542 7 0 15 -29 80 -86 194 -267 532 -738 951 -1295 1153 -79 29 -83 29
-74 7z"/>
<path d="M281 3113 c-89 -366 -89 -722 0 -1105 l21 -88 269 0 269 0 283 151
283 150 0 312 c1 275 13 535 30 635 l6 32 -570 0 -570 0 -21 -87z"/>
<path d="M1646 3133 c-19 -198 -26 -341 -26 -556 0 -131 3 -237 8 -235 4 2 52
25 106 53 90 45 107 50 178 54 72 3 85 0 143 -28 155 -77 219 -241 161 -410
-14 -41 -26 -78 -26 -83 0 -4 287 -8 639 -8 l638 0 6 53 c31 269 34 834 6
1105 l-12 122 -907 0 -907 0 -7 -67z"/>
<path d="M3684 3163 c39 -255 43 -838 8 -1171 l-8 -72 567 0 567 0 20 83 c33
131 51 253 62 410 15 231 -7 484 -62 705 l-20 82 -570 0 -570 0 6 -37z"/>
<path d="M1670 2119 c-218 -113 -599 -315 -1187 -631 -208 -112 -244 -135
-257 -163 -20 -41 -12 -86 19 -118 18 -17 108 -47 370 -121 191 -55 352 -105
358 -111 7 -6 57 -168 111 -359 113 -392 115 -396 196 -396 37 0 53 5 71 24
21 21 303 802 650 1799 27 78 29 92 19 123 -13 37 -60 74 -95 74 -11 0 -126
-55 -255 -121z"/>
<path d="M2105 1698 c-3 -7 -61 -172 -129 -367 l-124 -354 49 -156 c62 -197
180 -544 188 -553 11 -13 184 -38 331 -49 102 -7 189 -7 292 1 152 11 307 34
319 47 3 5 14 33 24 63 10 30 49 140 87 244 121 331 207 639 267 964 17 90 31
166 31 168 0 2 -299 4 -665 4 -524 0 -667 -3 -670 -12z"/>
<path d="M3656 1698 c-2 -7 -13 -78 -26 -157 -41 -268 -180 -763 -318 -1128
-18 -46 -27 -83 -23 -83 23 0 293 115 377 161 356 192 675 491 883 827 71 114
191 355 191 383 0 5 -237 9 -540 9 -424 0 -541 -3 -544 -12z"/>
<path d="M1692 526 c-23 -65 -40 -122 -37 -126 5 -8 176 -73 180 -68 1 2 -21
72 -49 157 l-52 154 -42 -117z"/>
</g>
</svg>
